<?xml version="1.0" encoding="UTF-8" standalone="no"?><!DOCTYPE svg PUBLIC "-//W3C//DTD SVG 1.1//EN" "http://www.w3.org/Graphics/SVG/1.1/DTD/svg11.dtd"><svg width="100%" height="100%" viewBox="0 0 1121 619" version="1.1" xmlns="http://www.w3.org/2000/svg" xmlns:xlink="http://www.w3.org/1999/xlink" xml:space="preserve" xmlns:serif="http://www.serif.com/" style="fill-rule:evenodd;clip-rule:evenodd;stroke-linecap:round;stroke-linejoin:round;stroke-miterlimit:1.5;"><rect id="ArtBoard1" x="0" y="0" width="1121" height="619" style="fill:none;"/><g><path d="M708.28,28.325l274.445,209.023l-104.829,338.205l-339.233,0l-104.829,-338.205l274.446,-209.023Z" style="fill:none;stroke:#000;stroke-width:11px;"/><path d="M772.508,204.711l2.084,0.95l1.729,1.502l1.232,1.931l0.084,0.184l0.101,0.232l0.097,0.23l0.094,0.229l0.092,0.232l0.088,0.231l0.087,0.232l0.083,0.232l0.081,0.232l0.079,0.233l0.077,0.234l0.075,0.234l0.072,0.234l0.071,0.235l0.069,0.237l0.066,0.237l0.065,0.237l0.064,0.238l0.061,0.241l0.06,0.239l0.058,0.241l0.057,0.24l0.055,0.243l0.054,0.245l0.052,0.244l0.051,0.244l0.049,0.247l0.048,0.247l0.046,0.247l0.045,0.247l0.044,0.251l0.042,0.25l0.041,0.25l0.039,0.252l0.038,0.253l0.037,0.253l0.036,0.253l0.034,0.255l0.033,0.256l0.031,0.256l0.031,0.257l0.029,0.257l0.027,0.258l0.027,0.26l0.025,0.258l0.023,0.26l0.023,0.261l0.021,0.261l0.02,0.26l0.018,0.263l0.018,0.263l0.015,0.263l0.015,0.262l0.013,0.264l0.012,0.264l0.011,0.265l0.009,0.264l0.008,0.265l0.007,0.266l0.005,0.265l0.004,0.265l0.003,0.267l0.001,0.265l0,0.266l-0.002,0.267l-0.003,0.267l-0.004,0.265l-0.006,0.267l-0.007,0.267l-0.009,0.266l-0.01,0.267l-0.012,0.266l-0.013,0.266l-0.014,0.268l-0.017,0.266l-0.017,0.265l-0.019,0.267l-0.021,0.266l-0.023,0.265l-0.024,0.266l-0.025,0.265l-0.027,0.265l-0.029,0.265l-0.031,0.264l-0.032,0.265l-0.035,0.264l-0.035,0.264l-0.038,0.262l-0.04,0.265l-0.041,0.263l-0.043,0.262l-0.046,0.262l-0.047,0.262l-0.049,0.262l-0.052,0.262l-0.053,0.261l-0.056,0.26l-0.058,0.261l-0.061,0.26l-0.062,0.261l-0.065,0.258l-0.068,0.259l-0.07,0.26l-0.073,0.259l-0.075,0.259l-0.079,0.258l-0.081,0.258l-0.084,0.258l-0.088,0.257l-0.09,0.259l-0.095,0.259l-0.098,0.257l-0.101,0.256l-0.105,0.258l-0.109,0.258l-0.113,0.256l-0.118,0.258l-0.122,0.257l-0.127,0.257l-0.132,0.258l-0.137,0.256l-0.142,0.257l-0.149,0.256l-0.154,0.257l-0.16,0.256l-0.167,0.256l-0.163,0.239l-0.101,0.144l-0.067,0.093l-1.769,1.787l-2.237,1.148l-2.483,0.398l-18.955,0.022l-0.234,52.496l68.637,150.022l0.132,0.297l0.115,0.264l0.115,0.264l0.112,0.262l0.112,0.263l0.11,0.262l0.108,0.262l0.107,0.261l0.106,0.261l0.104,0.26l0.103,0.259l0.101,0.26l0.1,0.259l0.099,0.258l0.097,0.258l0.095,0.257l0.094,0.258l0.093,0.256l0.091,0.257l0.09,0.256l0.089,0.256l0.087,0.255l0.085,0.255l0.084,0.254l0.083,0.254l0.081,0.254l0.079,0.252l0.078,0.254l0.077,0.253l0.075,0.252l0.073,0.252l0.072,0.252l0.071,0.251l0.069,0.251l0.067,0.25l0.066,0.252l0.065,0.249l0.062,0.249l0.061,0.249l0.06,0.25l0.058,0.25l0.057,0.248l0.054,0.247l0.054,0.248l0.052,0.249l0.05,0.248l0.048,0.247l0.047,0.247l0.045,0.246l0.044,0.248l0.041,0.246l0.04,0.246l0.039,0.246l0.036,0.245l0.036,0.247l0.033,0.245l0.031,0.244l0.03,0.246l0.028,0.244l0.026,0.244l0.025,0.245l0.022,0.245l0.021,0.244l0.019,0.244l0.017,0.242l0.015,0.245l0.014,0.242l0.011,0.244l0.01,0.243l0.007,0.242l0.006,0.243l0.003,0.241l0.002,0.243l0,0.243l-0.002,0.24l-0.005,0.242l-0.006,0.242l-0.009,0.242l-0.01,0.241l-0.013,0.24l-0.015,0.24l-0.016,0.241l-0.019,0.239l-0.022,0.24l-0.023,0.24l-0.026,0.239l-0.028,0.239l-0.03,0.239l-0.032,0.238l-0.035,0.238l-0.036,0.237l-0.04,0.237l-0.041,0.238l-0.044,0.235l-0.046,0.236l-0.049,0.237l-0.051,0.234l-0.053,0.234l-0.056,0.236l-0.058,0.232l-0.061,0.233l-0.063,0.233l-0.066,0.232l-0.068,0.23l-0.07,0.23l-0.073,0.231l-0.076,0.228l-0.078,0.23l-0.081,0.227l-0.082,0.225l-0.086,0.227l-0.088,0.224l-0.09,0.224l-0.094,0.224l-0.095,0.222l-0.098,0.221l-0.1,0.219l-0.103,0.218l-0.106,0.219l-0.109,0.217l-0.11,0.215l-0.113,0.214l-0.115,0.213l-0.117,0.211l-0.121,0.211l-0.123,0.209l-0.125,0.208l-0.127,0.205l-0.13,0.205l-0.133,0.204l-0.134,0.202l-0.136,0.199l-0.14,0.199l-0.141,0.198l-0.143,0.195l-0.146,0.193l-0.148,0.192l-0.151,0.191l-0.151,0.188l-0.155,0.188l-0.156,0.185l-0.158,0.183l-0.161,0.182l-0.163,0.181l-0.164,0.177l-0.166,0.176l-0.168,0.174l-0.171,0.174l-0.173,0.171l-0.173,0.168l-0.175,0.166l-0.177,0.165l-0.18,0.164l-0.181,0.161l-0.182,0.159l-0.185,0.158l-0.186,0.156l-0.188,0.154l-0.189,0.151l-0.189,0.149l-0.192,0.148l-0.194,0.146l-0.195,0.144l-0.197,0.143l-0.198,0.14l-0.199,0.138l-0.202,0.137l-0.201,0.135l-0.204,0.132l-0.205,0.131l-0.205,0.129l-0.209,0.128l-0.208,0.125l-0.21,0.124l-0.211,0.121l-0.213,0.12l-0.213,0.119l-0.215,0.116l-0.216,0.115l-0.217,0.113l-0.219,0.111l-0.22,0.11l-0.22,0.107l-0.223,0.107l-0.223,0.104l-0.224,0.103l-0.224,0.101l-0.227,0.099l-0.228,0.098l-0.228,0.096l-0.229,0.095l-0.232,0.093l-0.232,0.092l-0.232,0.09l-0.234,0.088l-0.235,0.087l-0.236,0.085l-0.237,0.084l-0.238,0.082l-0.24,0.081l-0.24,0.079l-0.241,0.078l-0.242,0.077l-0.244,0.075l-0.244,0.073l-0.246,0.072l-0.247,0.071l-0.247,0.069l-0.248,0.068l-0.251,0.067l-0.25,0.065l-0.252,0.064l-0.253,0.063l-0.254,0.061l-0.255,0.06l-0.256,0.058l-0.258,0.058l-0.258,0.056l-0.259,0.054l-0.261,0.054l-0.262,0.052l-0.262,0.051l-0.263,0.049l-0.265,0.049l-0.266,0.047l-0.267,0.046l-0.268,0.045l-0.27,0.043l-0.27,0.042l-0.271,0.041l-0.273,0.04l-0.273,0.039l-0.275,0.037l-0.276,0.037l-0.278,0.035l-0.277,0.034l-0.28,0.033l-0.281,0.032l-0.281,0.03l-0.283,0.029l-0.284,0.029l-0.285,0.027l-0.287,0.026l-0.287,0.025l-0.289,0.023l-0.29,0.023l-0.291,0.022l-0.292,0.02l-0.294,0.019l-0.294,0.019l-0.296,0.017l-0.297,0.016l-0.298,0.015l-0.3,0.014l-0.301,0.012l-0.416,0.017l-160.419,1.013l-0.434,-0.009l-0.337,-0.009l-0.335,-0.01l-0.334,-0.011l-0.332,-0.012l-0.331,-0.014l-0.33,-0.015l-0.328,-0.016l-0.328,-0.018l-0.325,-0.019l-0.325,-0.02l-0.323,-0.021l-0.322,-0.023l-0.321,-0.024l-0.319,-0.026l-0.319,-0.026l-0.316,-0.028l-0.315,-0.029l-0.315,-0.031l-0.313,-0.032l-0.311,-0.033l-0.31,-0.035l-0.309,-0.036l-0.308,-0.037l-0.307,-0.038l-0.305,-0.04l-0.304,-0.042l-0.303,-0.042l-0.301,-0.044l-0.3,-0.045l-0.3,-0.047l-0.297,-0.048l-0.296,-0.049l-0.296,-0.051l-0.293,-0.052l-0.293,-0.054l-0.292,-0.055l-0.29,-0.056l-0.288,-0.057l-0.288,-0.06l-0.286,-0.06l-0.286,-0.062l-0.284,-0.063l-0.282,-0.065l-0.282,-0.066l-0.28,-0.068l-0.279,-0.069l-0.277,-0.07l-0.277,-0.073l-0.276,-0.073l-0.273,-0.075l-0.273,-0.076l-0.271,-0.078l-0.271,-0.08l-0.269,-0.081l-0.268,-0.082l-0.266,-0.084l-0.266,-0.086l-0.264,-0.087l-0.263,-0.089l-0.261,-0.09l-0.261,-0.092l-0.259,-0.093l-0.257,-0.094l-0.258,-0.097l-0.255,-0.099l-0.254,-0.099l-0.252,-0.101l-0.252,-0.103l-0.251,-0.105l-0.249,-0.107l-0.247,-0.108l-0.246,-0.109l-0.245,-0.112l-0.244,-0.113l-0.243,-0.115l-0.241,-0.116l-0.24,-0.118l-0.238,-0.12l-0.238,-0.122l-0.235,-0.124l-0.235,-0.125l-0.233,-0.127l-0.231,-0.129l-0.23,-0.13l-0.229,-0.133l-0.227,-0.134l-0.226,-0.136l-0.225,-0.138l-0.223,-0.14l-0.222,-0.142l-0.219,-0.143l-0.218,-0.145l-0.218,-0.147l-0.215,-0.149l-0.214,-0.151l-0.213,-0.154l-0.21,-0.154l-0.209,-0.157l-0.208,-0.159l-0.205,-0.16l-0.204,-0.162l-0.202,-0.165l-0.2,-0.166l-0.199,-0.168l-0.197,-0.17l-0.195,-0.172l-0.194,-0.174l-0.191,-0.175l-0.19,-0.178l-0.187,-0.18l-0.186,-0.182l-0.184,-0.183l-0.181,-0.184l-0.18,-0.188l-0.179,-0.19l-0.175,-0.19l-0.173,-0.192l-0.172,-0.196l-0.169,-0.196l-0.167,-0.198l-0.166,-0.2l-0.162,-0.202l-0.161,-0.203l-0.157,-0.205l-0.157,-0.208l-0.154,-0.209l-0.15,-0.209l-0.15,-0.213l-0.146,-0.213l-0.144,-0.215l-0.143,-0.219l-0.138,-0.217l-0.137,-0.22l-0.134,-0.222l-0.132,-0.222l-0.13,-0.226l-0.126,-0.226l-0.124,-0.226l-0.122,-0.229l-0.119,-0.23l-0.116,-0.232l-0.114,-0.233l-0.11,-0.232l-0.109,-0.236l-0.106,-0.237l-0.103,-0.238l-0.1,-0.238l-0.098,-0.239l-0.095,-0.241l-0.092,-0.241l-0.089,-0.244l-0.088,-0.244l-0.084,-0.244l-0.081,-0.246l-0.079,-0.247l-0.076,-0.246l-0.073,-0.248l-0.071,-0.249l-0.068,-0.251l-0.065,-0.251l-0.063,-0.25l-0.06,-0.251l-0.057,-0.253l-0.055,-0.253l-0.052,-0.254l-0.049,-0.253l-0.046,-0.255l-0.044,-0.256l-0.042,-0.255l-0.038,-0.256l-0.037,-0.257l-0.033,-0.257l-0.031,-0.258l-0.029,-0.258l-0.026,-0.257l-0.023,-0.259l-0.021,-0.26l-0.019,-0.258l-0.016,-0.26l-0.013,-0.259l-0.011,-0.26l-0.009,-0.261l-0.006,-0.26l-0.004,-0.262l-0.001,-0.26l0.001,-0.261l0.003,-0.263l0.006,-0.261l0.008,-0.262l0.01,-0.261l0.013,-0.262l0.015,-0.262l0.017,-0.264l0.019,-0.263l0.022,-0.261l0.024,-0.263l0.026,-0.264l0.028,-0.264l0.031,-0.263l0.032,-0.263l0.035,-0.264l0.037,-0.263l0.039,-0.264l0.041,-0.264l0.043,-0.264l0.046,-0.265l0.047,-0.264l0.049,-0.264l0.052,-0.265l0.053,-0.265l0.056,-0.264l0.057,-0.265l0.06,-0.267l0.062,-0.264l0.063,-0.265l0.066,-0.267l0.067,-0.265l0.069,-0.265l0.072,-0.267l0.074,-0.266l0.075,-0.266l0.077,-0.266l0.079,-0.267l0.081,-0.267l0.083,-0.267l0.084,-0.266l0.087,-0.268l0.089,-0.268l0.09,-0.267l0.092,-0.268l0.095,-0.268l0.096,-0.268l0.097,-0.269l0.1,-0.269l0.101,-0.268l0.104,-0.269l0.105,-0.269l0.106,-0.269l0.11,-0.271l0.11,-0.27l0.112,-0.27l0.115,-0.271l0.116,-0.27l0.117,-0.271l0.12,-0.27l0.121,-0.272l0.124,-0.273l0.124,-0.27l0.126,-0.272l0.129,-0.273l0.13,-0.273l0.133,-0.274l0.133,-0.273l0.135,-0.273l0.093,-0.184l71.147,-149.489l0.229,-52.53l-20.52,0.215l-2.332,-0.322l-2.138,-0.987l-1.758,-1.567l-0.086,-0.104l-0.107,-0.13l-0.105,-0.13l-0.103,-0.13l-0.101,-0.131l-0.101,-0.131l-0.1,-0.132l-0.098,-0.132l-0.098,-0.135l-0.096,-0.133l-0.093,-0.132l-0.094,-0.135l-0.093,-0.137l-0.091,-0.135l-0.09,-0.136l-0.089,-0.136l-0.087,-0.135l-0.086,-0.138l-0.085,-0.137l-0.092,-0.15l-0.157,-0.265l-0.16,-0.277l-0.155,-0.279l-0.151,-0.28l-0.147,-0.281l-0.143,-0.284l-0.138,-0.282l-0.135,-0.284l-0.13,-0.286l-0.126,-0.286l-0.123,-0.286l-0.118,-0.287l-0.115,-0.288l-0.111,-0.289l-0.107,-0.289l-0.104,-0.29l-0.1,-0.29l-0.096,-0.29l-0.093,-0.292l-0.09,-0.291l-0.086,-0.292l-0.083,-0.292l-0.079,-0.292l-0.077,-0.293l-0.073,-0.293l-0.07,-0.294l-0.067,-0.293l-0.063,-0.294l-0.061,-0.293l-0.057,-0.293l-0.055,-0.295l-0.052,-0.293l-0.049,-0.294l-0.045,-0.295l-0.043,-0.293l-0.041,-0.295l-0.037,-0.293l-0.034,-0.293l-0.032,-0.294l-0.029,-0.294l-0.026,-0.294l-0.024,-0.293l-0.021,-0.292l-0.018,-0.293l-0.015,-0.294l-0.013,-0.291l-0.01,-0.292l-0.008,-0.294l-0.005,-0.291l-0.002,-0.291l0,-0.291l0.003,-0.289l0.005,-0.291l0.008,-0.291l0.01,-0.289l0.013,-0.289l0.016,-0.288l0.018,-0.287l0.021,-0.29l0.023,-0.287l0.026,-0.286l0.028,-0.285l0.031,-0.285l0.034,-0.286l0.036,-0.286l0.039,-0.283l0.041,-0.282l0.044,-0.284l0.046,-0.281l0.049,-0.281l0.052,-0.282l0.055,-0.279l0.057,-0.28l0.06,-0.279l0.062,-0.277l0.066,-0.278l0.068,-0.277l0.071,-0.275l0.074,-0.276l0.077,-0.273l0.079,-0.275l0.083,-0.273l0.086,-0.272l0.089,-0.271l0.092,-0.27l0.095,-0.27l0.098,-0.269l0.102,-0.267l0.105,-0.268l0.109,-0.267l0.112,-0.266l0.115,-0.263l0.119,-0.263l0.124,-0.265l0.127,-0.261l0.131,-0.261l0.135,-0.259l0.138,-0.258l0.144,-0.259l0.148,-0.256l0.152,-0.255l0.157,-0.255l0.162,-0.252l0.167,-0.252l0.172,-0.25l0.177,-0.249l0.183,-0.247l0.177,-0.23l0.107,-0.136l0.096,-0.12l0.1,-0.122l0.102,-0.122l0.101,-0.119l0.103,-0.118l0.107,-0.121l0.106,-0.117l0.107,-0.117l0.111,-0.117l0.112,-0.117l0.113,-0.115l0.113,-0.114l0.118,-0.115l0.119,-0.114l0.119,-0.112l0.121,-0.111l0.125,-0.111l0.124,-0.11l0.093,-0.079l1.56,-1.047l1.76,-0.655l1.865,-0.226l120.277,-0.35l2.268,0.322Zm-118.136,16.016l-0.016,0.055l-0.03,0.113l-0.03,0.117l-0.029,0.118l-0.028,0.12l-0.028,0.123l-0.027,0.124l-0.025,0.126l-0.025,0.128l-0.024,0.129l-0.023,0.132l-0.022,0.134l-0.021,0.134l-0.02,0.136l-0.019,0.138l-0.017,0.138l-0.017,0.138l-0.015,0.142l-0.014,0.142l-0.013,0.144l-0.012,0.144l-0.01,0.143l-0.009,0.146l-0.008,0.147l-0.007,0.146l-0.005,0.148l-0.004,0.147l-0.003,0.147l-0.001,0.15l0,0.148l0.001,0.15l0.002,0.149l0.004,0.148l0.005,0.149l0.007,0.15l0.008,0.148l0.009,0.148l0.011,0.149l0.012,0.148l0.013,0.147l0.014,0.147l0.016,0.145l0.017,0.147l0.019,0.145l0.019,0.143l0.021,0.144l0.022,0.142l0.024,0.142l0.025,0.14l0.025,0.139l0.027,0.138l0.029,0.137l0.029,0.136l0.031,0.134l0.031,0.132l0.033,0.131l0.034,0.129l0.034,0.128l0.014,0.049l23.833,-0.25l2.498,0.373l2.258,1.134l1.792,1.78l1.147,2.251l0.388,2.497l-0.272,62.438l-0.2,1.744l-0.576,1.659l-71.986,151.251l-0.148,0.296l-0.102,0.206l-0.1,0.204l-0.098,0.203l-0.097,0.202l-0.094,0.2l-0.093,0.201l-0.092,0.2l-0.09,0.197l-0.087,0.196l-0.086,0.195l-0.085,0.195l-0.083,0.193l-0.081,0.191l-0.079,0.191l-0.078,0.19l-0.075,0.188l-0.075,0.187l-0.072,0.186l-0.071,0.185l-0.07,0.184l-0.067,0.182l-0.066,0.181l-0.065,0.18l-0.062,0.179l-0.061,0.176l-0.06,0.177l-0.058,0.175l-0.056,0.173l-0.055,0.173l-0.053,0.171l-0.051,0.169l-0.05,0.168l-0.048,0.167l-0.047,0.166l-0.046,0.165l-0.043,0.161l-0.042,0.163l-0.041,0.161l-0.039,0.157l-0.038,0.159l-0.037,0.157l-0.034,0.153l-0.033,0.153l-0.032,0.153l-0.031,0.151l-0.029,0.149l-0.028,0.148l-0.026,0.146l-0.024,0.144l-0.024,0.145l-0.022,0.141l-0.021,0.141l-0.02,0.14l-0.018,0.137l-0.017,0.137l-0.015,0.136l-0.015,0.133l-0.013,0.131l-0.011,0.131l-0.011,0.131l-0.01,0.127l-0.008,0.125l-0.007,0.125l-0.006,0.124l-0.005,0.122l-0.003,0.121l-0.003,0.12l-0.001,0.116l-0.001,0.117l0.001,0.116l0.001,0.113l0.003,0.112l0.004,0.111l0.004,0.109l0.006,0.109l0.006,0.106l0.008,0.107l0.008,0.102l0.01,0.103l0.01,0.103l0.011,0.1l0.012,0.098l0.013,0.098l0.013,0.096l0.015,0.095l0.015,0.095l0.016,0.092l0.017,0.091l0.017,0.092l0.019,0.089l0.018,0.087l0.02,0.087l0.021,0.087l0.021,0.086l0.022,0.083l0.022,0.082l0.023,0.082l0.025,0.082l0.025,0.081l0.025,0.078l0.026,0.079l0.027,0.078l0.027,0.076l0.028,0.076l0.029,0.076l0.029,0.075l0.03,0.074l0.031,0.073l0.032,0.072l0.031,0.072l0.033,0.071l0.035,0.072l0.034,0.07l0.035,0.07l0.036,0.069l0.036,0.068l0.038,0.07l0.038,0.068l0.039,0.067l0.04,0.068l0.04,0.067l0.042,0.067l0.043,0.067l0.042,0.065l0.045,0.067l0.046,0.067l0.045,0.064l0.048,0.066l0.048,0.066l0.048,0.064l0.051,0.066l0.051,0.065l0.053,0.065l0.053,0.064l0.055,0.065l0.056,0.066l0.056,0.063l0.059,0.066l0.06,0.065l0.06,0.063l0.061,0.065l0.065,0.065l0.065,0.065l0.065,0.064l0.068,0.065l0.069,0.064l0.071,0.065l0.071,0.065l0.073,0.064l0.075,0.065l0.077,0.065l0.078,0.065l0.079,0.064l0.082,0.065l0.083,0.065l0.084,0.064l0.086,0.065l0.088,0.064l0.089,0.064l0.091,0.065l0.093,0.064l0.094,0.064l0.097,0.064l0.099,0.065l0.099,0.063l0.102,0.064l0.104,0.064l0.105,0.063l0.108,0.064l0.109,0.063l0.111,0.063l0.113,0.063l0.115,0.063l0.117,0.062l0.119,0.062l0.12,0.062l0.123,0.062l0.125,0.061l0.126,0.061l0.128,0.061l0.13,0.06l0.133,0.061l0.134,0.06l0.137,0.059l0.138,0.059l0.14,0.059l0.142,0.058l0.145,0.058l0.147,0.058l0.148,0.057l0.149,0.056l0.153,0.056l0.155,0.056l0.156,0.055l0.159,0.055l0.16,0.054l0.162,0.053l0.165,0.053l0.166,0.053l0.169,0.052l0.17,0.051l0.173,0.05l0.175,0.051l0.176,0.049l0.179,0.049l0.18,0.048l0.183,0.048l0.185,0.047l0.187,0.046l0.188,0.045l0.191,0.045l0.193,0.044l0.194,0.044l0.197,0.043l0.199,0.042l0.2,0.041l0.203,0.04l0.205,0.04l0.206,0.039l0.209,0.038l0.211,0.037l0.212,0.037l0.215,0.036l0.217,0.035l0.218,0.034l0.22,0.033l0.223,0.032l0.224,0.032l0.227,0.031l0.228,0.029l0.23,0.029l0.232,0.028l0.234,0.028l0.237,0.026l0.238,0.025l0.24,0.025l0.242,0.023l0.244,0.023l0.245,0.022l0.248,0.021l0.249,0.019l0.252,0.019l0.253,0.018l0.256,0.017l0.257,0.016l0.259,0.015l0.261,0.014l0.262,0.013l0.265,0.012l0.267,0.011l0.268,0.01l0.271,0.009l0.272,0.008l0.274,0.007l0.179,0.004l159.935,-1.01l0.128,-0.005l0.24,-0.011l0.239,-0.011l0.237,-0.012l0.235,-0.012l0.234,-0.014l0.231,-0.014l0.229,-0.015l0.228,-0.016l0.226,-0.017l0.224,-0.017l0.222,-0.019l0.22,-0.019l0.218,-0.019l0.217,-0.021l0.214,-0.021l0.213,-0.023l0.211,-0.022l0.209,-0.024l0.207,-0.024l0.205,-0.025l0.203,-0.026l0.201,-0.027l0.199,-0.027l0.197,-0.028l0.196,-0.028l0.194,-0.03l0.192,-0.03l0.189,-0.03l0.188,-0.032l0.186,-0.032l0.183,-0.032l0.182,-0.033l0.181,-0.034l0.178,-0.035l0.176,-0.035l0.173,-0.036l0.173,-0.036l0.171,-0.037l0.167,-0.037l0.167,-0.038l0.164,-0.039l0.162,-0.039l0.16,-0.04l0.159,-0.04l0.157,-0.041l0.154,-0.041l0.152,-0.041l0.151,-0.043l0.149,-0.042l0.146,-0.043l0.145,-0.044l0.142,-0.044l0.141,-0.044l0.139,-0.045l0.137,-0.045l0.135,-0.046l0.132,-0.045l0.131,-0.047l0.129,-0.046l0.127,-0.047l0.125,-0.047l0.124,-0.048l0.121,-0.048l0.118,-0.047l0.117,-0.049l0.116,-0.049l0.113,-0.048l0.111,-0.049l0.111,-0.05l0.108,-0.049l0.105,-0.05l0.104,-0.049l0.102,-0.05l0.1,-0.05l0.098,-0.05l0.097,-0.05l0.094,-0.05l0.093,-0.051l0.091,-0.05l0.09,-0.051l0.087,-0.05l0.086,-0.051l0.084,-0.05l0.082,-0.05l0.081,-0.051l0.079,-0.05l0.077,-0.051l0.076,-0.051l0.073,-0.049l0.073,-0.051l0.071,-0.05l0.069,-0.05l0.068,-0.05l0.066,-0.05l0.065,-0.05l0.064,-0.05l0.062,-0.05l0.06,-0.049l0.059,-0.05l0.057,-0.049l0.057,-0.049l0.055,-0.049l0.053,-0.049l0.053,-0.049l0.052,-0.049l0.051,-0.05l0.049,-0.048l0.047,-0.048l0.046,-0.048l0.047,-0.049l0.045,-0.049l0.044,-0.048l0.042,-0.048l0.042,-0.049l0.041,-0.048l0.04,-0.049l0.04,-0.049l0.038,-0.048l0.037,-0.048l0.037,-0.05l0.037,-0.05l0.034,-0.048l0.035,-0.049l0.034,-0.05l0.033,-0.051l0.032,-0.049l0.032,-0.05l0.032,-0.052l0.031,-0.051l0.03,-0.051l0.029,-0.051l0.03,-0.053l0.028,-0.053l0.029,-0.054l0.028,-0.054l0.026,-0.054l0.027,-0.054l0.026,-0.056l0.026,-0.057l0.026,-0.058l0.025,-0.058l0.024,-0.058l0.024,-0.059l0.024,-0.061l0.022,-0.06l0.024,-0.064l0.022,-0.063l0.022,-0.063l0.021,-0.065l0.021,-0.065l0.02,-0.068l0.021,-0.069l0.02,-0.07l0.018,-0.069l0.019,-0.071l0.019,-0.075l0.017,-0.072l0.017,-0.075l0.017,-0.078l0.016,-0.077l0.015,-0.079l0.015,-0.081l0.014,-0.08l0.014,-0.083l0.013,-0.086l0.013,-0.086l0.012,-0.087l0.011,-0.088l0.01,-0.09l0.01,-0.091l0.009,-0.093l0.008,-0.094l0.008,-0.097l0.007,-0.097l0.006,-0.098l0.005,-0.102l0.005,-0.101l0.003,-0.103l0.003,-0.104l0.002,-0.106l0.001,-0.109l0,-0.109l-0.001,-0.11l-0.001,-0.114l-0.003,-0.113l-0.004,-0.117l-0.004,-0.116l-0.006,-0.118l-0.006,-0.121l-0.008,-0.121l-0.009,-0.124l-0.009,-0.125l-0.011,-0.126l-0.012,-0.127l-0.013,-0.129l-0.014,-0.131l-0.015,-0.133l-0.016,-0.133l-0.018,-0.136l-0.018,-0.137l-0.02,-0.138l-0.021,-0.14l-0.022,-0.141l-0.023,-0.143l-0.025,-0.145l-0.025,-0.145l-0.027,-0.147l-0.028,-0.149l-0.03,-0.151l-0.03,-0.15l-0.032,-0.152l-0.033,-0.155l-0.035,-0.158l-0.036,-0.157l-0.037,-0.158l-0.038,-0.159l-0.04,-0.162l-0.041,-0.164l-0.042,-0.165l-0.043,-0.164l-0.046,-0.167l-0.046,-0.169l-0.047,-0.17l-0.049,-0.171l-0.051,-0.173l-0.052,-0.173l-0.052,-0.175l-0.055,-0.176l-0.056,-0.179l-0.057,-0.179l-0.059,-0.18l-0.06,-0.182l-0.061,-0.183l-0.063,-0.184l-0.064,-0.186l-0.065,-0.186l-0.067,-0.188l-0.069,-0.19l-0.07,-0.19l-0.071,-0.193l-0.073,-0.193l-0.074,-0.194l-0.075,-0.195l-0.077,-0.197l-0.079,-0.198l-0.079,-0.199l-0.081,-0.2l-0.083,-0.203l-0.084,-0.202l-0.086,-0.204l-0.086,-0.205l-0.089,-0.207l-0.09,-0.207l-0.091,-0.208l-0.078,-0.177l-69.327,-151.53l-0.546,-1.642l-0.179,-1.722l0.276,-62.213l0.4,-2.462l1.139,-2.219l1.766,-1.761l2.223,-1.131l2.463,-0.391l21.332,-0.024l0.018,-0.128l0.021,-0.156l0.021,-0.157l0.019,-0.16l0.019,-0.161l0.018,-0.163l0.017,-0.166l0.016,-0.167l0.015,-0.167l0.014,-0.169l0.014,-0.171l0.012,-0.172l0.012,-0.174l0.01,-0.175l0.01,-0.175l0.008,-0.177l0.008,-0.179l0.007,-0.178l0.006,-0.18l0.005,-0.179l0.004,-0.181l0.003,-0.182l0.002,-0.182l0.001,-0.182l0,-0.183l-0.001,-0.183l-0.002,-0.183l-0.002,-0.184l-0.004,-0.184l-0.005,-0.183l-0.005,-0.184l-0.007,-0.184l-0.007,-0.183l-0.008,-0.183l-0.01,-0.182l-0.01,-0.184l-0.011,-0.182l-0.012,-0.18l-0.012,-0.181l-0.014,-0.181l-0.015,-0.18l-0.015,-0.178l-0.016,-0.177l-0.017,-0.178l-0.018,-0.176l-0.019,-0.174l-0.02,-0.174l-0.02,-0.172l-0.021,-0.171l-0.005,-0.037l-109.726,0.32Z"/><path d="M766.339,400.734l-112.539,-0.514l-25.67,50.304c-4.556,9.33 -1.059,15.369 9.558,15.256l140.657,-0.165c11.894,-1.082 15.085,-5.738 11.472,-15.28l-23.478,-49.601Z"/><path d="M734.039,383.505c-3.345,0.992 -6.866,-0.92 -7.857,-4.265c-0.991,-3.345 0.92,-6.866 4.265,-7.857c3.346,-0.991 6.866,0.92 7.857,4.265c0.992,3.346 -0.92,6.866 -4.265,7.857Z"/><path d="M739.618,348.953c-4.414,4.07 -11.302,3.791 -15.372,-0.623c-4.07,-4.414 -3.791,-11.302 0.622,-15.372c4.414,-4.07 11.302,-3.791 15.372,0.622c4.071,4.414 3.792,11.302 -0.622,15.373Z"/><path d="M726.159,279.979c-2.23,2.645 -6.188,2.982 -8.833,0.751c-2.645,-2.23 -2.982,-6.188 -0.752,-8.833c2.23,-2.645 6.188,-2.982 8.833,-0.752c2.646,2.23 2.982,6.188 0.752,8.834Z"/><path d="M747.445,188.774c-2.974,3.49 -8.221,3.909 -11.711,0.935c-3.49,-2.973 -3.909,-8.22 -0.935,-11.71c2.973,-3.49 8.221,-3.909 11.71,-0.935c3.49,2.973 3.909,8.221 0.936,11.71Z"/><path d="M710.306,240.468c-2.726,2.595 -7.045,2.488 -9.639,-0.238c-2.595,-2.725 -2.488,-7.045 0.238,-9.639c2.726,-2.595 7.045,-2.488 9.639,0.238c2.595,2.726 2.488,7.045 -0.238,9.639Z"/><path d="M675.571,391.325c-5.576,-3.989 -6.863,-11.755 -2.874,-17.33c3.99,-5.576 11.756,-6.863 17.331,-2.874c5.576,3.99 6.863,11.756 2.874,17.331c-3.99,5.576 -11.756,6.863 -17.331,2.873Z"/><path d="M698.137,355.836c-2.21,0.584 -4.478,-0.736 -5.062,-2.946c-0.584,-2.21 0.736,-4.478 2.946,-5.062c2.21,-0.584 4.478,0.736 5.062,2.946c0.584,2.21 -0.736,4.478 -2.946,5.062Z"/><path d="M707.222,317.693c-3.717,3.312 -9.423,2.983 -12.735,-0.734c-3.313,-3.717 -2.984,-9.424 0.733,-12.736c3.717,-3.312 9.424,-2.983 12.736,0.734c3.312,3.717 2.983,9.424 -0.734,12.736Z"/><path d="M721.69,145.061c-3.16,3.027 -8.182,2.919 -11.209,-0.241c-3.027,-3.159 -2.919,-8.182 0.241,-11.209c3.159,-3.027 8.182,-2.919 11.209,0.241c3.026,3.159 2.919,8.182 -0.241,11.209Z"/><path d="M687.053,191.722c2.348,-0.266 4.454,1.293 4.702,3.479c0.247,2.186 -1.459,4.177 -3.806,4.442c-2.348,0.266 -4.455,-1.294 -4.702,-3.48c-0.247,-2.186 1.458,-4.176 3.806,-4.441Z"/></g><g><path d="M641.876,38.96l-571.449,147.702l36.269,140.323l571.449,-147.702l-36.269,-140.323Z" style="fill:#fff;fill-opacity:0.894118;stroke:#d10000;stroke-width:10px;"/><g transform="matrix(0.968182,-0.250245,0.250245,0.968182,33.5655,6.07686)"><text x="28px" y="280.128px" style="font-family:'Arial-BoldMT', 'Arial', sans-serif;font-weight:700;font-size:72px;fill:#d10000;stroke:#d20000;stroke-width:1px;stroke-linecap:butt;stroke-miterlimit:1.41421;">T<tspan x="68.008px 96.027px " y="280.128px 280.128px ">ri</tspan>al Store</text><text x="400.129px" y="280.128px" style="font-family:'ArialMT', 'Arial', sans-serif;font-size:72px;fill:#d10000;stroke:#d20000;stroke-width:1px;stroke-linecap:butt;stroke-miterlimit:1.41421;">LAB</text></g></g></svg>